{
  "accessors": [
    {
      "bufferView": 2,
      "componentType": 5126,
      "count": 65532,
      "max": [
        1.0,
        1.0,
        0.21702179312705994
      ],
      "min": [
        0.0,
        0.2832030951976776,
        0.048565469682216644
      ],
      "type": "VEC3"
    },
    {
      "bufferView": 2,
      "byteOffset": 786384,
      "componentType": 5126,
      "count": 65532,
      "max": [
        0.9174984693527222,
        0.9158901572227478,
        1.0
      ],
      "min": [
        -0.9177119135856628,
        -0.8650849461555481,
        0.3207175135612488
      ],
      "type": "VEC3"
    },
    {
      "bufferView": 3,
      "componentType": 5126,
      "count": 65532,
      "max": [
        1.0,
        9.230308023688849e-06,
        0.9420398473739624,
        1.0
      ],
      "min": [
        0.33550116419792175,
        -8.714437171875034e-06,
        -0.9276908040046692,
        1.0
      ],
      "type": "VEC4"
    },
    {
      "bufferView": 1,
      "componentType": 5126,
      "count": 65532,
      "max": [
        1.0,
        1.0
      ],
      "min": [
        0.0,
        0.2832030951976776
      ],
      "type": "VEC2"
    },
    {
      "bufferView": 0,
      "componentType": 5125,
      "count": 374142,
      "type": "SCALAR"
    },
    {
      "bufferView": 2,
      "byteOffset": 1572768,
      "componentType": 5126,
      "count": 65532,
      "max": [
        1.0,
        0.3066405951976776,
        0.21564200520515442
      ],
      "min": [
        0.0,
        -0.0,
        0.05837944149971008
      ],
      "type": "VEC3"
    },
    {
      "bufferView": 2,
      "byteOffset": 2359152,
      "componentType": 5126,
      "count": 65532,
      "max": [
        0.8315973877906799,
        0.9538132548332214,
        1.0
      ],
      "min": [
        -0.8670685887336731,
        -0.9058132767677307,
        0.30024540424346924
      ],
      "type": "VEC3"
    },
    {
      "bufferView": 3,
      "byteOffset": 1048512,
      "componentType": 5126,
      "count": 65532,
      "max": [
        1.0,
        9.180525012197904e-06,
        0.8829450011253357,
        1.0
      ],
      "min": [
        0.46947649121284485,
        -1.015573252516333e-05,
        -0.8755404949188232,
        1.0
      ],
      "type": "VEC4"
    },
    {
      "bufferView": 1,
      "byteOffset": 524256,
      "componentType": 5126,
      "count": 65532,
      "max": [
        1.0,
        0.3066405951976776
      ],
      "min": [
        0.0,
        0.0
      ],
      "type": "VEC2"
    },
    {
      "bufferView": 0,
      "byteOffset": 1496568,
      "componentType": 5125,
      "count": 365826,
      "type": "SCALAR"
    },
    {
      "bufferView": 2,
      "byteOffset": 3145536,
      "componentType": 5126,
      "count": 65532,
      "max": [
        1.0,
        0.9023438096046448,
        0.21564200520515442
      ],
      "min": [
        0.00390625,
        0.029296880587935448,
        0.045166630297899246
      ],
      "type": "VEC3"
    },
    {
      "bufferView": 2,
      "byteOffset": 3931920,
      "componentType": 5126,
      "count": 65532,
      "max": [
        0.9196395874023438,
        0.9544258713722229,
        0.9999998807907104
      ],
      "min": [
        -0.9236396551132202,
        -0.9323539733886719,
        0.2858867049217224
      ],
      "type": "VEC3"
    },
    {
      "bufferView": 3,
      "byteOffset": 2097024,
      "componentType": 5126,
      "count": 65532,
      "max": [
        1.0,
        1.5616418750141747e-05,
        0.9433857798576355,
        1.0
      ],
      "min": [
        0.33169761300086975,
        -1.4590883438359015e-05,
        -0.9197335243225098,
        1.0
      ],
      "type": "VEC4"
    },
    {
      "bufferView": 1,
      "byteOffset": 1048512,
      "componentType": 5126,
      "count": 65532,
      "max": [
        1.0,
        0.9023438096046448
      ],
      "min": [
        0.00390625,
        0.029296880587935448
      ],
      "type": "VEC2"
    },
    {
      "bufferView": 0,
      "byteOffset": 2959872,
      "componentType": 5125,
      "count": 346203,
      "type": "SCALAR"
    },
    {
      "bufferView": 2,
      "byteOffset": 4718304,
      "componentType": 5126,
      "count": 65532,
      "max": [
        1.0,
        0.888671875,
        0.15537120401859283
      ],
      "min": [
        0.0332031287252903,
        0.544921875,
        0.04295229911804199
      ],
      "type": "VEC3"
    },
    {
      "bufferView": 2,
      "byteOffset": 5504688,
      "componentType": 5126,
      "count": 65532,
      "max": [
        0.9828334450721741,
        0.9290228486061096,
        0.999999463558197
      ],
      "min": [
        -0.9604722261428833,
        -0.9692829847335815,
        0.15500004589557648
      ],
      "type": "VEC3"
    },
    {
      "bufferView": 3,
      "byteOffset": 3145536,
      "componentType": 5126,
      "count": 65532,
      "max": [
        1.0,
        9.828574548009783e-06,
        0.9843023419380188,
        1.0
      ],
      "min": [
        0.17649073898792267,
        -9.942844371835236e-06,
        -0.9828752875328064,
        1.0
      ],
      "type": "VEC4"
    },
    {
      "bufferView": 1,
      "byteOffset": 1572768,
      "componentType": 5126,
      "count": 65532,
      "max": [
        1.0,
        0.888671875
      ],
      "min": [
        0.0332031287252903,
        0.544921875
      ],
      "type": "VEC2"
    },
    {
      "bufferView": 0,
      "byteOffset": 4344684,
      "componentType": 5125,
      "count": 364140,
      "type": "SCALAR"
    },
    {
      "bufferView": 2,
      "byteOffset": 6291072,
      "componentType": 5126,
      "count": 23353,
      "max": [
        1.0,
        0.9921875,
        0.14627300202846527
      ],
      "min": [
        0.02734375,
        0.8632813096046448,
        0.0456140898168087
      ],
      "type": "VEC3"
    },
    {
      "bufferView": 2,
      "byteOffset": 6571308,
      "componentType": 5126,
      "count": 23353,
      "max": [
        0.8416581749916077,
        0.8347204327583313,
        0.9999992847442627
      ],
      "min": [
        -0.9076914191246033,
        -0.8375275135040283,
        0.30014047026634216
      ],
      "type": "VEC3"
    },
    {
      "bufferView": 3,
      "byteOffset": 4194048,
      "componentType": 5126,
      "count": 23353,
      "max": [
        1.0,
        8.889756827556994e-06,
        0.9445183277130127,
        1.0
      ],
      "min": [
        0.3284589350223541,
        -8.651638381707016e-06,
        -0.8439123630523682,
        1.0
      ],
      "type": "VEC4"
    },
    {
      "bufferView": 1,
      "byteOffset": 2097024,
      "componentType": 5126,
      "count": 23353,
      "max": [
        1.0,
        0.9921875
      ],
      "min": [
        0.02734375,
        0.8632813096046448
      ],
      "type": "VEC2"
    },
    {
      "bufferView": 0,
      "byteOffset": 5801244,
      "componentType": 5125,
      "count": 122553,
      "type": "SCALAR"
    }
  ],
  "asset": {
    "extras": {
      "author": "solararchitect (https://sketchfab.com/solararchitect)",
      "license": "CC-BY-4.0 (http://creativecommons.org/licenses/by/4.0/)",
      "source": "https://sketchfab.com/3d-models/mountain-range-01-6dff907d427f4c9f8d301075f8019c82",
      "title": "Mountain Range 01"
    },
    "generator": "Sketchfab-12.67.0",
    "version": "2.0"
  },
  "bufferViews": [
    {
      "buffer": 0,
      "byteLength": 6291456,
      "name": "floatBufferViews",
      "target": 34963
    },
    {
      "buffer": 0,
      "byteLength": 2283848,
      "byteOffset": 6291456,
      "byteStride": 8,
      "name": "floatBufferViews",
      "target": 34962
    },
    {
      "buffer": 0,
      "byteLength": 6851544,
      "byteOffset": 8575304,
      "byteStride": 12,
      "name": "floatBufferViews",
      "target": 34962
    },
    {
      "buffer": 0,
      "byteLength": 4567696,
      "byteOffset": 15426848,
      "byteStride": 16,
      "name": "floatBufferViews",
      "target": 34962
    }
  ],
  "buffers": [
    {
      "byteLength": 19994544,
      "uri": "scene.bin"
    }
  ],
  "images": [
    {
      "uri": "textures/material_0_baseColor.jpeg"
    },
    {
      "uri": "textures/material_0_metallicRoughness.png"
    },
    {
      "uri": "textures/material_0_normal.jpeg"
    }
  ],
  "materials": [
    {
      "doubleSided": true,
      "name": "material_0",
      "normalTexture": {
        "index": 2
      },
      "occlusionTexture": {
        "index": 1
      },
      "pbrMetallicRoughness": {
        "baseColorTexture": {
          "index": 0
        },
        "metallicFactor": 0.0,
        "metallicRoughnessTexture": {
          "index": 1
        }
      }
    }
  ],
  "meshes": [
    {
      "name": "Object_0",
      "primitives": [
        {
          "attributes": {
            "NORMAL": 1,
            "POSITION": 0,
            "TANGENT": 2,
            "TEXCOORD_0": 3
          },
          "indices": 4,
          "material": 0,
          "mode": 4
        }
      ]
    },
    {
      "name": "Object_1",
      "primitives": [
        {
          "attributes": {
            "NORMAL": 6,
            "POSITION": 5,
            "TANGENT": 7,
            "TEXCOORD_0": 8
          },
          "indices": 9,
          "material": 0,
          "mode": 4
        }
      ]
    },
    {
      "name": "Object_2",
      "primitives": [
        {
          "attributes": {
            "NORMAL": 11,
            "POSITION": 10,
            "TANGENT": 12,
            "TEXCOORD_0": 13
          },
          "indices": 14,
          "material": 0,
          "mode": 4
        }
      ]
    },
    {
      "name": "Object_3",
      "primitives": [
        {
          "attributes": {
            "NORMAL": 16,
            "POSITION": 15,
            "TANGENT": 17,
            "TEXCOORD_0": 18
          },
          "indices": 19,
          "material": 0,
          "mode": 4
        }
      ]
    },
    {
      "name": "Object_4",
      "primitives": [
        {
          "attributes": {
            "NORMAL": 21,
            "POSITION": 20,
            "TANGENT": 22,
            "TEXCOORD_0": 23
          },
          "indices": 24,
          "material": 0,
          "mode": 4
        }
      ]
    }
  ],
  "nodes": [
    {
      "children": [
        1
      ],
      "matrix": [
        1.0,
        0.0,
        0.0,
        0.0,
        0.0,
        2.220446049250313e-16,
        -1.0,
        0.0,
        0.0,
        1.0,
        2.220446049250313e-16,
        0.0,
        0.0,
        0.0,
        0.0,
        1.0
      ],
      "name": "Sketchfab_model"
    },
    {
      "children": [
        2,
        3,
        4,
        5,
        6
      ],
      "name": "mesh_range01_05K_OBJ.obj.cleaner.materialmerger.gles"
    },
    {
      "mesh": 0,
      "name": "Object_2"
    },
    {
      "mesh": 1,
      "name": "Object_3"
    },
    {
      "mesh": 2,
      "name": "Object_4"
    },
    {
      "mesh": 3,
      "name": "Object_5"
    },
    {
      "mesh": 4,
      "name": "Object_6"
    }
  ],
  "samplers": [
    {
      "magFilter": 9729,
      "minFilter": 9987,
      "wrapS": 10497,
      "wrapT": 10497
    }
  ],
  "scene": 0,
  "scenes": [
    {
      "name": "Sketchfab_Scene",
      "nodes": [
        0
      ]
    }
  ],
  "textures": [
    {
      "sampler": 0,
      "source": 0
    },
    {
      "sampler": 0,
      "source": 1
    },
    {
      "sampler": 0,
      "source": 2
    }
  ]
}
